<svg width="16" height="16" viewBox="0 0 16 16" fill="none" xmlns="http://www.w3.org/2000/svg">
<path d="M12.4466 1.3335H11.18C9.72663 1.3335 8.95996 2.10016 8.95996 3.5535V4.82016C8.95996 6.2735 9.72663 7.04016 11.18 7.04016H12.4466C13.9 7.04016 14.6666 6.2735 14.6666 4.82016V3.5535C14.6666 2.10016 13.9 1.3335 12.4466 1.3335Z" fill="#00B8BF"/>
<path d="M4.82634 8.95312H3.55967C2.09967 8.95312 1.33301 9.71979 1.33301 11.1731V12.4398C1.33301 13.8998 2.09967 14.6665 3.55301 14.6665H4.81967C6.27301 14.6665 7.03967 13.8998 7.03967 12.4465V11.1798C7.04634 9.71979 6.27967 8.95312 4.82634 8.95312Z" fill="#00B8BF"/>
<path d="M4.19301 7.0535C5.77254 7.0535 7.05301 5.77303 7.05301 4.1935C7.05301 2.61396 5.77254 1.3335 4.19301 1.3335C2.61347 1.3335 1.33301 2.61396 1.33301 4.1935C1.33301 5.77303 2.61347 7.0535 4.19301 7.0535Z" fill="#00B8BF"/>
<path d="M11.8063 14.6668C13.3858 14.6668 14.6663 13.3863 14.6663 11.8068C14.6663 10.2272 13.3858 8.94678 11.8063 8.94678C10.2268 8.94678 8.94629 10.2272 8.94629 11.8068C8.94629 13.3863 10.2268 14.6668 11.8063 14.6668Z" fill="#00B8BF"/>
</svg>
