<svg width="16" height="16" viewBox="0 0 16 16" fill="none" xmlns="http://www.w3.org/2000/svg">
<path d="M8.4668 11.2536H8.93346C9.70013 11.2536 10.3268 10.6269 10.3268 9.86022V9.39355H8.4668V11.2536Z" fill="#3A5899"/>
<path d="M5.67285 9.86022C5.67285 10.6269 6.29952 11.2536 7.06618 11.2536H7.53285V9.39355H5.67285V9.86022Z" fill="#3A5899"/>
<path d="M5.67285 7.99978V8.46644H7.53285V6.60645H7.06618C6.29952 6.60645 5.67285 7.23311 5.67285 7.99978Z" fill="#3A5899"/>
<path d="M13.353 4.54679L9.51967 1.86012C8.47301 1.12679 6.87301 1.16679 5.86634 1.94679L2.52634 4.55345C1.85301 5.07345 1.33301 6.14012 1.33301 6.98012V11.5801C1.33301 13.2801 2.71301 14.6668 4.40634 14.6668H11.5863C13.2797 14.6668 14.6597 13.2868 14.6597 11.5868V7.06679C14.6663 6.16679 14.0863 5.06012 13.353 4.54679ZM11.253 9.86012C11.253 11.1401 10.2063 12.1868 8.92634 12.1868H7.06634C5.78634 12.1868 4.73967 11.1468 4.73967 9.86012V8.00012C4.73967 6.72012 5.78634 5.67345 7.06634 5.67345H8.92634C10.2063 5.67345 11.253 6.71345 11.253 8.00012V9.86012Z" fill="#3A5899"/>
<path d="M8.93346 6.60645H8.4668V8.46644H10.3268V7.99978C10.3268 7.23311 9.70013 6.60645 8.93346 6.60645Z" fill="#3A5899"/>
</svg>
