<svg width="143" height="32" viewBox="0 0 143 32" fill="none" xmlns="http://www.w3.org/2000/svg">
<g clip-path="url(#clip0_547_3636)">
<mask id="mask0_547_3636" style="mask-type:luminance" maskUnits="userSpaceOnUse" x="0" y="0" width="143" height="32">
<path d="M142.154 0H0V32H142.154V0Z" fill="white"/>
</mask>
<g mask="url(#mask0_547_3636)">
<path d="M10.0559 5.84639C10.9334 6.39903 11.5734 7.15527 11.9759 8.11027V0H16.8777V21.1992H11.9759V18.3051C11.5734 19.2601 10.9334 20.0163 10.0559 20.569C9.17827 21.1217 8.12613 21.398 6.90427 21.398C5.5855 21.398 4.40731 21.0683 3.36487 20.409C2.32244 19.7497 1.50304 18.7996 0.901827 17.5585C0.300609 16.3175 0 14.8681 0 13.2053C0 11.5425 0.300609 10.0688 0.901827 8.83747C1.50304 7.60613 2.32244 6.66081 3.36487 6.00151C4.40731 5.34222 5.5855 5.01257 6.90427 5.01257C8.12613 5.01257 9.17827 5.28889 10.0559 5.84154V5.84639ZM5.94429 10.3451C5.30429 11.0335 4.98428 11.9885 4.98428 13.2101C4.98428 14.4317 5.30429 15.3867 5.94429 16.0751C6.58429 16.7635 7.42793 17.1077 8.48007 17.1077C9.5322 17.1077 10.3565 16.7538 11.0159 16.0461C11.6753 15.3383 12.0049 14.393 12.0049 13.2101C12.0049 12.0273 11.6753 11.0577 11.0159 10.3597C10.3565 9.66153 9.5128 9.31253 8.48007 9.31253C7.44733 9.31253 6.58429 9.65673 5.94429 10.3451Z" fill="#00B8BF"/>
<path d="M30.8467 6.00164C32.0975 6.66093 33.0818 7.61108 33.7994 8.85208C34.517 10.0931 34.8757 11.5475 34.8757 13.2054C34.8757 14.8633 34.517 16.3177 33.7994 17.5587C33.0818 18.7997 32.0975 19.7499 30.8467 20.4091C29.5957 21.0684 28.1751 21.3981 26.5897 21.3981C25.0042 21.3981 23.5787 21.0684 22.3181 20.4091C21.0575 19.7499 20.0684 18.7997 19.3508 17.5587C18.6332 16.3177 18.2744 14.8681 18.2744 13.2054C18.2744 11.5426 18.6332 10.0931 19.3508 8.85208C20.0684 7.61108 21.0575 6.66093 22.3181 6.00164C23.5787 5.34234 24.9993 5.0127 26.5897 5.0127C28.1799 5.0127 29.5957 5.34234 30.8467 6.00164ZM24.2284 10.2725C23.5884 10.9512 23.2684 11.9304 23.2684 13.2102C23.2684 14.49 23.5884 15.4644 24.2284 16.1334C24.8684 16.8024 25.6539 17.1369 26.5945 17.1369C27.5351 17.1369 28.3157 16.8024 28.946 16.1334C29.5763 15.4644 29.8915 14.49 29.8915 13.2102C29.8915 11.9304 29.5763 10.9512 28.946 10.2725C28.3157 9.59381 27.5303 9.25448 26.5945 9.25448C25.6587 9.25448 24.8684 9.59381 24.2284 10.2725Z" fill="#00B8BF"/>
<path d="M48.6837 6.71916C50.0801 7.85356 50.9576 9.41936 51.3212 11.4021H46.1334C45.9782 10.7137 45.6631 10.1805 45.1879 9.79749C44.7079 9.41449 44.1066 9.22543 43.3842 9.22543C42.526 9.22543 41.8182 9.56483 41.2654 10.2435C40.7127 10.9222 40.4363 11.9111 40.4363 13.2103C40.4363 14.5095 40.7127 15.4984 41.2654 16.1772C41.8182 16.8558 42.526 17.1952 43.3842 17.1952C44.1115 17.1952 44.7127 17.0061 45.1879 16.6231C45.6631 16.2402 45.9782 15.7069 46.1334 15.0185H51.3212C50.9576 17.0061 50.0801 18.5671 48.6837 19.7014C47.2873 20.8358 45.5613 21.4078 43.4958 21.4078C41.9297 21.4078 40.5382 21.0782 39.326 20.4189C38.1139 19.7596 37.1636 18.8095 36.4751 17.5684C35.7866 16.3274 35.4424 14.878 35.4424 13.2152C35.4424 11.5524 35.7818 10.0787 36.4605 8.84736C37.1393 7.61603 38.0896 6.67069 39.3114 6.0114C40.5333 5.35211 41.9297 5.02246 43.4958 5.02246C45.5564 5.02246 47.2873 5.58965 48.6837 6.72889V6.71916Z" fill="#00B8BF"/>
<path d="M68.626 5.21631V21.2042H63.6952V18.3101C63.2345 19.2457 62.5558 19.9922 61.6442 20.5449C60.7376 21.0976 59.6806 21.3738 58.4781 21.3738C56.6454 21.3738 55.186 20.763 54.1096 19.5414C53.0284 18.3198 52.4902 16.6376 52.4902 14.4998V5.21631H57.363V13.8986C57.363 14.9894 57.6442 15.8329 58.2066 16.434C58.769 17.0351 59.5302 17.3357 60.4854 17.3357C61.4406 17.3357 62.26 17.0206 62.837 16.3904C63.4139 15.7602 63.6952 14.8634 63.6952 13.6999V5.21631H68.626Z" fill="#00B8BF"/>
<path d="M79.9129 16.9914V21.2041H77.7069C75.8356 21.2041 74.3756 20.7388 73.3382 19.8128C72.2956 18.8869 71.7769 17.355 71.7769 15.2123V9.33682H69.6289V5.21138H71.7769V1.28955H76.6789V5.21623H79.8889V9.34168H76.6789V15.2996C76.6789 15.9298 76.8096 16.3709 77.0669 16.6182C77.3236 16.8654 77.7602 16.9914 78.3709 16.9914H79.9176H79.9129Z" fill="#162650"/>
<path d="M88.7856 5.89956C89.7509 5.32752 90.7976 5.0415 91.9229 5.0415V10.2819H90.5169C89.2176 10.2819 88.2089 10.5582 87.4962 11.1109C86.7782 11.6635 86.4196 12.5992 86.4196 13.9177V21.1942H81.5176V5.21602H86.4196V8.2265C87.0309 7.2521 87.8209 6.48128 88.7856 5.9044V5.89956Z" fill="#162650"/>
<path d="M104.573 6.00164C105.824 6.66093 106.808 7.61108 107.526 8.85208C108.244 10.0931 108.602 11.5475 108.602 13.2054C108.602 14.8633 108.244 16.3177 107.526 17.5587C106.808 18.7997 105.824 19.7499 104.573 20.4091C103.322 21.0684 101.902 21.3981 100.316 21.3981C98.731 21.3981 97.305 21.0684 96.0443 20.4091C94.7843 19.7499 93.795 18.7997 93.0776 17.5587C92.3596 16.3177 92.001 14.8681 92.001 13.2054C92.001 11.5426 92.3596 10.0931 93.0776 8.85208C93.795 7.61108 94.7843 6.66093 96.0443 6.00164C97.305 5.34234 98.7256 5.0127 100.316 5.0127C101.906 5.0127 103.322 5.34234 104.573 6.00164ZM97.955 10.2725C97.315 10.9512 96.995 11.9304 96.995 13.2102C96.995 14.49 97.315 15.4644 97.955 16.1334C98.595 16.8024 99.3803 17.1369 100.321 17.1369C101.262 17.1369 102.042 16.8024 102.672 16.1334C103.303 15.4644 103.618 14.49 103.618 13.2102C103.618 11.9304 103.303 10.9512 102.672 10.2725C102.042 9.59381 101.257 9.25448 100.321 9.25448C99.385 9.25448 98.595 9.59381 97.955 10.2725Z" fill="#162650"/>
<path d="M142.008 14.0973H130.92C130.978 15.2996 131.284 16.1625 131.836 16.6909C132.389 17.2145 133.097 17.4763 133.955 17.4763C134.682 17.4763 135.284 17.2969 135.759 16.9333C136.234 16.5697 136.549 16.1043 136.704 15.5275H141.892C141.684 16.657 141.223 17.6605 140.515 18.5476C139.807 19.4347 138.91 20.1328 137.819 20.637C136.728 21.1411 135.516 21.3981 134.178 21.3981C132.612 21.3981 131.22 21.0684 130.008 20.4091C128.796 19.7499 127.846 18.7997 127.158 17.5587C126.469 16.3177 126.125 14.8681 126.125 13.2054C126.125 11.5426 126.464 10.0689 127.143 8.83755C127.822 7.60622 128.772 6.66093 129.994 6.00164C131.216 5.34234 132.612 5.0127 134.178 5.0127C135.744 5.0127 137.16 5.3375 138.362 5.9871C139.565 6.6367 140.496 7.54808 141.155 8.72122C141.814 9.89435 142.144 11.2469 142.144 12.7739C142.144 13.1763 142.096 13.6126 141.999 14.0925L142.008 14.0973ZM136.35 9.67141C135.768 9.14782 135.046 8.88122 134.188 8.88122C133.33 8.88122 132.544 9.14781 131.952 9.68108C131.361 10.2143 131.026 10.9997 130.949 12.0322H137.194C137.213 10.9803 136.932 10.1949 136.35 9.66655V9.67141Z" fill="#162650"/>
<path d="M123.22 5.17725C121.873 8.82757 120.53 12.4731 119.182 16.1234C119.143 16.2252 119.09 16.3319 119.007 16.395C118.731 16.6131 118.362 16.4482 118.309 16.0895C118.251 15.6968 118.198 15.2994 118.139 14.9067C117.912 13.3118 117.684 11.7168 117.456 10.1171C117.446 10.0347 117.417 10.0056 117.334 9.99591C115.356 9.71477 113.378 9.43357 111.4 9.15237C111.259 9.13304 111.138 9.08937 111.056 8.97304C110.876 8.72577 110.978 8.40584 111.279 8.29437C111.749 8.11984 112.214 7.95017 112.685 7.77564C115.036 6.90791 117.388 6.04499 119.74 5.17725H108.52L114.28 21.4075H120.447L126.207 5.17725H123.216H123.22Z" fill="#162650"/>
<path d="M89.4797 28.4419C89.6297 28.6261 89.7031 28.8394 89.7031 29.0818C89.7031 29.4163 89.5911 29.6829 89.3684 29.8768C89.1451 30.0707 88.8204 30.1725 88.3937 30.1725H86.7891V26.144H88.3644C88.7671 26.144 89.0771 26.2362 89.2904 26.4155C89.5037 26.5949 89.6104 26.8421 89.6104 27.1621C89.6104 27.419 89.5431 27.6226 89.4117 27.7826C89.2811 27.9426 89.1017 28.0444 88.8884 28.0977C89.1304 28.1462 89.3297 28.2625 89.4797 28.4467V28.4419ZM87.4384 27.8747H88.2431C88.4711 27.8747 88.6457 27.8214 88.7671 27.7147C88.8884 27.608 88.9464 27.4578 88.9464 27.2687C88.9464 27.0796 88.8884 26.9342 88.7671 26.8276C88.6457 26.7209 88.4664 26.6676 88.2237 26.6676H87.4431V27.8698L87.4384 27.8747ZM88.8351 29.4648C88.9704 29.3532 89.0384 29.1933 89.0384 28.9945C89.0384 28.7958 88.9704 28.6358 88.8351 28.5194C88.6991 28.408 88.5051 28.3498 88.2577 28.3498H87.4431V29.6344H88.2631C88.5097 29.6344 88.6991 29.5811 88.8351 29.4648Z" fill="#58595B"/>
<path d="M93.6688 26.144L92.3308 28.7036V30.1677H91.6761V28.7036L90.3281 26.144H91.0795L92.0061 28.0104L92.9321 26.144H93.6735H93.6688Z" fill="#58595B"/>
<path fill-rule="evenodd" clip-rule="evenodd" d="M133.174 25.6638C133.373 25.7316 133.547 25.6784 133.654 25.8577C133.746 26.008 133.751 26.2504 133.751 26.4346V29.0088C133.751 29.7504 133.518 29.6535 133.159 29.7456L133.169 29.954C133.339 29.9734 134.91 29.954 134.958 29.9346C135.094 29.479 134.411 30.0268 134.333 29.2075C134.318 29.0427 134.279 27.9713 134.367 27.8986C134.473 27.8259 134.881 27.8598 135.007 27.9228C135.128 27.981 135.191 28.2137 135.269 28.3543C135.448 28.6888 135.589 28.9312 135.792 29.222C136.539 30.3176 137.756 31.1612 139.065 31.612C139.559 31.7816 141.005 32.0919 141.533 31.9659C141.62 31.7041 141.392 31.7477 141.169 31.7235C139.361 31.5392 137.771 30.6376 136.651 29.3093C136.432 29.0524 135.768 28.1507 135.71 27.7386C136.961 27.2926 137.043 26.1098 136.398 25.6347C135.783 25.1838 134.721 25.436 134.032 25.4602C133.765 25.4699 133.421 25.402 133.174 25.4456V25.659V25.6638ZM134.643 25.6784C136.049 25.499 136.675 26.9484 135.647 27.4526C135.438 27.5544 135.133 27.6223 134.861 27.6368C134.207 27.6708 134.328 27.6902 134.328 26.294C134.328 25.9062 134.231 25.7316 134.648 25.6784H134.643Z" fill="#58595B"/>
<path fill-rule="evenodd" clip-rule="evenodd" d="M108.316 29.7508V29.9495C108.476 29.9689 109.77 29.9689 109.994 29.9495L110.004 29.7604C109.552 29.5568 109.305 29.9689 109.324 28.5534L109.378 26.527C109.475 26.6143 109.79 27.1621 109.887 27.3269C110.284 27.9959 110.77 28.7958 110.954 29.5617C110.997 29.7508 110.997 29.9592 111.162 30.0126C111.38 29.9786 111.506 29.3387 111.604 29.1302C111.822 28.631 112.728 26.8858 113.029 26.5561V29.0236C113.029 29.8526 112.665 29.6732 112.51 29.7508C112.423 29.7944 112.364 29.9786 112.588 29.9738L114.173 29.9641L114.183 29.7702C113.882 29.6296 113.611 29.8477 113.601 28.9945V26.4204C113.601 26.1344 113.586 25.8144 113.858 25.732C114.023 25.6786 114.173 25.7417 114.158 25.5623C114.149 25.4024 113.916 25.475 113.538 25.475C113.412 25.475 113.164 25.412 113.082 25.4848C112.966 25.572 113.068 25.5623 113.053 25.7223C113.034 25.8968 112.379 27.0457 112.282 27.2057L111.598 28.4322C111.536 28.5485 111.438 28.7667 111.337 28.8588C111.269 28.6842 110.154 26.6579 109.97 26.3186C109.906 26.2022 109.567 25.4993 109.528 25.4605L108.617 25.4702C108.505 25.5332 108.544 25.6496 108.66 25.6932C108.874 25.7756 109.014 25.8144 109.063 26.052C109.15 26.4834 109.024 28.3498 109 28.9218C108.961 29.8816 108.777 29.6054 108.33 29.7604" fill="#58595B"/>
<path fill-rule="evenodd" clip-rule="evenodd" d="M103.856 27.4043C103.807 27.2153 103.831 26.6917 103.831 26.4687C103.831 26.1197 103.734 25.8482 104.122 25.79C104.496 25.7367 105.625 25.7464 105.878 25.9403C106.023 26.0518 105.989 26.0857 106.018 26.299C106.042 26.4978 106.217 26.4057 106.256 26.3087C106.294 26.2166 106.256 26.013 106.246 25.9015C106.236 25.7367 106.309 25.5767 106.299 25.504C106.275 25.281 105.708 25.4264 105.509 25.4458C104.99 25.4846 102.736 25.4458 102.711 25.4652C102.653 25.504 102.658 25.5913 102.702 25.6397C102.755 25.6979 102.794 25.6833 102.881 25.6979C103.317 25.7755 103.259 26.2603 103.259 26.7062C103.259 27.1086 103.303 29.1543 103.206 29.4597C103.114 29.7458 102.847 29.6779 102.57 29.7651L102.58 29.9639C103.012 30.0318 104.001 29.9542 104.5 29.9542C104.728 29.9542 106.324 30.0027 106.338 30.0027C106.401 29.8669 106.377 29.5131 106.464 29.2659C106.537 29.0623 106.566 28.6453 106.265 28.7568C106.047 29.038 106.362 29.3143 105.732 29.5325C105.388 29.6537 104.917 29.6731 104.524 29.6585C103.924 29.6391 103.826 29.6197 103.831 29.0283C103.831 28.8005 103.764 27.9327 103.88 27.8067C103.977 27.6952 104.888 27.7339 105.097 27.7582C105.674 27.8212 105.504 28.529 105.77 28.2575C105.863 28.1509 105.761 27.6709 105.766 27.4819C105.776 27.191 105.945 26.8711 105.582 26.8807C105.441 27.254 105.582 27.4431 105 27.4479C104.767 27.4479 104.016 27.4819 103.85 27.4189" fill="#58595B"/>
<path fill-rule="evenodd" clip-rule="evenodd" d="M116.045 25.4554L116.025 25.659C116.2 25.7269 116.399 25.6978 116.505 25.8578C116.67 26.1002 116.607 27.346 116.607 27.7242C116.607 28.1265 116.68 29.3288 116.486 29.576C116.35 29.7457 116.185 29.6826 115.996 29.7554V29.9493C116.243 29.988 116.665 29.9396 116.941 29.9444C117.174 29.9444 117.747 30.0172 117.901 29.9299C117.994 29.5275 117.436 29.8862 117.257 29.4839C117.135 29.2076 117.184 26.5122 117.189 26.1244C117.199 25.659 117.354 25.6057 117.839 25.6881C119.085 25.8966 119.036 27.4139 118.008 27.4672C117.809 27.4769 117.707 27.4333 117.538 27.38C116.966 27.2006 117.329 27.9181 118.323 27.7436C119.763 27.4915 119.821 25.6008 118.27 25.3876C117.921 25.3391 117.485 25.3972 117.15 25.436C116.888 25.47 116.156 25.4166 116.045 25.4554Z" fill="#58595B"/>
<path fill-rule="evenodd" clip-rule="evenodd" d="M138.818 29.9205C138.988 30.192 139.032 29.8332 139.405 29.906C139.652 29.9544 139.885 30.0078 140.161 30.0029C141.15 29.9932 142.023 29.2903 141.786 28.3208C141.572 27.453 140.51 27.3997 139.836 26.8858C139.482 26.6192 139.303 26.149 139.744 25.8193C140.127 25.5284 140.675 25.5915 141.005 25.8726C141.247 26.0811 141.17 26.1538 141.257 26.4544C141.31 26.6434 141.659 26.6095 141.567 26.1247C141.466 25.5866 141.635 25.5624 141.592 25.3976C141.533 25.194 141.368 25.3636 141.32 25.3927C141.204 25.4654 141.112 25.4218 140.971 25.3927C139.89 25.1988 138.838 25.5672 138.998 26.6725C139.128 27.579 140.258 27.7342 140.869 28.185C141.194 28.4274 141.441 28.8928 141.087 29.3436C140.85 29.6442 140.302 29.8187 139.778 29.6442C139.08 29.4115 139.342 28.6504 139.22 28.5244C139.085 28.4128 138.954 28.5583 138.915 28.6746C138.828 28.9316 138.954 29.2854 138.915 29.5666C138.896 29.712 138.798 29.8042 138.832 29.9205" fill="#58595B"/>
<path fill-rule="evenodd" clip-rule="evenodd" d="M96.9123 26.4687C97.2369 26.1876 96.5969 25.7658 97.9549 25.7658C98.1096 25.7658 98.1829 25.7852 98.2943 25.824L98.3429 26.0955L98.3329 29.0138C98.3329 29.2126 98.3183 29.4598 98.1923 29.5859C98.0323 29.7458 97.8289 29.6925 97.6249 29.7507V29.9591H99.6083L99.6176 29.7603C99.1963 29.6053 98.9096 29.8137 98.9096 29.1059C98.9096 28.626 98.8616 26.0955 98.9489 25.8337C99.2349 25.7416 99.8943 25.7319 100.103 25.9161C100.253 26.0421 100.229 26.2797 100.282 26.4881C100.728 26.5657 100.476 26.0131 100.452 25.7271C100.442 25.6204 100.481 25.4847 100.447 25.3974C100.326 25.1599 100.185 25.4071 99.9329 25.441C99.4576 25.5089 97.8723 25.4798 97.4263 25.4459C97.1549 25.4265 96.9363 25.2374 96.8296 25.3295C96.7429 25.4071 96.8056 25.6204 96.7329 26.0131C96.6989 26.1827 96.6363 26.5899 96.9169 26.4833" fill="#58595B"/>
<path fill-rule="evenodd" clip-rule="evenodd" d="M121.338 25.4653L121.324 25.6641C121.654 25.7561 121.886 25.635 121.901 26.4106C121.915 27.1039 121.915 28.3255 121.901 29.0139C121.882 29.8767 121.59 29.6101 121.314 29.7653V29.9446C121.498 29.9931 123.448 29.9349 123.966 29.9446C124.16 29.9446 124.679 30.027 124.781 29.9737C124.824 29.8913 124.834 29.4647 124.902 29.2611C124.98 29.0187 125.052 28.7085 124.703 28.7327C124.519 29.1011 124.8 29.4938 123.68 29.6247C123.433 29.6537 122.972 29.6731 122.744 29.6247C122.42 29.5519 122.468 29.2563 122.468 28.9315C122.468 28.3012 122.468 27.671 122.468 27.0408C122.468 25.4459 122.541 25.8822 123.036 25.6592C123.113 25.3538 122.958 25.4605 122.308 25.4701C122.119 25.4701 121.46 25.4265 121.338 25.4701" fill="#58595B"/>
<path fill-rule="evenodd" clip-rule="evenodd" d="M129.718 28.0684C129.844 28.1557 130.338 29.3289 130.212 29.5809C130.12 29.7651 129.892 29.7118 129.693 29.7942V29.9881H131.54L131.55 29.7942C131.298 29.673 131.075 29.7942 130.842 29.1883C130.721 28.8683 130.604 28.5532 130.474 28.2284C130.377 27.9909 129.62 26.0615 129.572 25.8675C129.49 25.5621 129.761 25.6009 129.718 25.4167C129.669 25.2228 129.417 25.3973 129.266 25.4555C129.092 25.5185 128.791 25.5379 128.704 25.5719C128.447 25.6785 128.767 25.8433 128.796 25.9597C128.84 26.1439 128.306 27.1619 128.214 27.3558C128.03 27.7485 127.376 29.261 127.133 29.5421C126.944 29.7603 126.93 29.6633 126.672 29.7555C126.57 29.7894 126.556 29.9009 126.61 29.9591C126.668 30.0269 127.414 29.9736 127.618 29.9736C127.884 29.9785 128.549 30.0899 128.364 29.8039C128.244 29.6149 127.478 29.9154 127.899 28.8537C128.054 28.4659 128.132 28.0636 128.384 28.0393C128.554 28.0248 129.611 28.0248 129.712 28.0539M128.646 27.7097C128.248 27.7097 128.35 27.7339 128.656 27.0407C128.762 26.7983 128.908 26.4396 129.034 26.236C129.063 26.2747 129.635 27.5497 129.577 27.7049H128.646V27.7097Z" fill="#58595B"/>
</g>
</g>
<defs>
<clipPath id="clip0_547_3636">
<rect width="142.667" height="32" fill="white"/>
</clipPath>
</defs>
</svg>
