<svg width="16" height="16" viewBox="0 0 16 16" fill="none" xmlns="http://www.w3.org/2000/svg">
<path d="M5.16699 2.3335V1.3335C5.16699 1.06016 4.94033 0.833496 4.66699 0.833496C4.39366 0.833496 4.16699 1.06016 4.16699 1.3335V2.3735C4.33366 2.3535 4.48699 2.3335 4.66699 2.3335H5.16699Z" fill="#3A5899"/>
<path d="M10.5 2.3735V1.3335C10.5 1.06016 10.2733 0.833496 10 0.833496C9.72667 0.833496 9.5 1.06016 9.5 1.3335V2.3335H10C10.18 2.3335 10.3333 2.3535 10.5 2.3735Z" fill="#3A5899"/>
<path d="M14.193 9.98016C13.6797 9.5735 13.033 9.3335 12.333 9.3335C11.633 9.3335 10.973 9.58016 10.4597 9.9935C9.76634 10.5402 9.33301 11.3935 9.33301 12.3335C9.33301 12.8935 9.49301 13.4335 9.76634 13.8735C9.97967 14.2202 10.253 14.5268 10.5797 14.7602C11.073 15.1202 11.673 15.3335 12.333 15.3335C13.093 15.3335 13.7797 15.0535 14.3063 14.5868C14.5397 14.3935 14.7397 14.1535 14.8997 13.8802C15.173 13.4335 15.333 12.8935 15.333 12.3335C15.333 11.3802 14.8863 10.5268 14.193 9.98016ZM12.333 13.7602C12.333 12.9735 11.693 12.3335 10.9063 12.3335C11.693 12.3335 12.333 11.6935 12.333 10.9068C12.333 11.6935 12.973 12.3335 13.7597 12.3335C12.973 12.3335 12.333 12.9735 12.333 13.7602Z" fill="#3A5899"/>
<path d="M10.4997 2.3735V3.3335C10.4997 3.60683 10.273 3.8335 9.99967 3.8335C9.72634 3.8335 9.49967 3.60683 9.49967 3.3335V2.3335H5.16634V3.3335C5.16634 3.60683 4.93967 3.8335 4.66634 3.8335C4.39301 3.8335 4.16634 3.60683 4.16634 3.3335V2.3735C2.19967 2.5535 1.33301 3.82016 1.33301 5.66683V11.3335C1.33301 13.3335 2.33301 14.6668 4.66634 14.6668H7.41967C7.92634 14.6668 8.26634 14.1002 8.13967 13.6068C8.04634 13.2468 7.99967 12.8735 7.99967 12.5002C7.99967 11.1135 8.61967 9.8335 9.69301 8.98683C10.473 8.3535 11.473 8.00016 12.4997 8.00016H12.5263C12.9463 8.00016 13.333 7.6935 13.333 7.2735V5.66683C13.333 3.82016 12.4663 2.5535 10.4997 2.3735ZM5.99967 11.1668H4.66634C4.39301 11.1668 4.16634 10.9402 4.16634 10.6668C4.16634 10.3935 4.39301 10.1668 4.66634 10.1668H5.99967C6.27301 10.1668 6.49967 10.3935 6.49967 10.6668C6.49967 10.9402 6.27301 11.1668 5.99967 11.1668ZM7.99967 7.8335H4.66634C4.39301 7.8335 4.16634 7.60683 4.16634 7.3335C4.16634 7.06016 4.39301 6.8335 4.66634 6.8335H7.99967C8.27301 6.8335 8.49967 7.06016 8.49967 7.3335C8.49967 7.60683 8.27301 7.8335 7.99967 7.8335Z" fill="#3A5899"/>
</svg>
