<svg width="16" height="16" viewBox="0 0 16 16" fill="none" xmlns="http://www.w3.org/2000/svg">
<path fill-rule="evenodd" clip-rule="evenodd" d="M13 14C13.5304 14 14.0391 13.7893 14.4142 13.4142C14.7893 13.0391 15 12.5304 15 12V6C15 5.46957 14.7893 4.96086 14.4142 4.58579C14.0391 4.21071 13.5304 4 13 4H9.414C9.28144 3.99988 9.15434 3.94713 9.06067 3.85333L7.64667 2.44C7.50743 2.30059 7.3421 2.18998 7.1601 2.11448C6.97811 2.03899 6.78303 2.00009 6.586 2H3C2.46957 2 1.96086 2.21071 1.58579 2.58579C1.21071 2.96086 1 3.46957 1 4V12C1 12.5304 1.21071 13.0391 1.58579 13.4142C1.96086 13.7893 2.46957 14 3 14H13ZM8.5 7C8.5 6.86739 8.44732 6.74022 8.35355 6.64645C8.25979 6.55268 8.13261 6.5 8 6.5C7.86739 6.5 7.74022 6.55268 7.64645 6.64645C7.55268 6.74022 7.5 6.86739 7.5 7V9.79333L6.35333 8.64667C6.25855 8.55835 6.13319 8.51026 6.00365 8.51255C5.87412 8.51484 5.75053 8.56731 5.65892 8.65892C5.56731 8.75053 5.51484 8.87412 5.51255 9.00365C5.51026 9.13319 5.55835 9.25855 5.64667 9.35333L7.64667 11.3533C7.74042 11.447 7.8675 11.4996 8 11.4996C8.1325 11.4996 8.25958 11.447 8.35333 11.3533L10.3533 9.35333C10.4025 9.30756 10.4419 9.25236 10.4692 9.19103C10.4965 9.12969 10.5112 9.06348 10.5124 8.99635C10.5136 8.92921 10.5012 8.86253 10.4761 8.80027C10.4509 8.73801 10.4135 8.68145 10.366 8.63398C10.3185 8.5865 10.262 8.54907 10.1997 8.52392C10.1375 8.49877 10.0708 8.48642 10.0037 8.48761C9.93652 8.48879 9.87031 8.50348 9.80898 8.53081C9.74764 8.55814 9.69244 8.59754 9.64667 8.64667L8.5 9.79333V7Z" fill="#3A5899"/>
</svg>
