<svg width="32" height="32" viewBox="0 0 32 32" fill="none" xmlns="http://www.w3.org/2000/svg">
<rect width="32" height="32" rx="4" fill="#00B8BF"/>
<path d="M15.9601 9.47338L14.3535 13.2134H12.7468C12.4801 13.2134 12.2201 13.2334 11.9668 13.2867L12.6335 11.6867L12.6601 11.6267L12.7001 11.5201C12.7201 11.4734 12.7335 11.4334 12.7535 11.4001C13.5268 9.60672 14.3935 9.04672 15.9601 9.47338Z" fill="white"/>
<path d="M20.4867 13.3935L20.4734 13.3868C20.0734 13.2735 19.6667 13.2135 19.2534 13.2135H15.0801L16.5801 9.72684L16.6001 9.68018C16.6934 9.71351 16.7934 9.76018 16.8934 9.79351L18.3667 10.4135C19.1867 10.7535 19.7601 11.1068 20.1134 11.5335C20.1734 11.6135 20.2267 11.6868 20.2801 11.7735C20.3401 11.8668 20.3867 11.9602 20.4134 12.0602C20.4401 12.1202 20.4601 12.1735 20.4734 12.2335C20.5734 12.5735 20.5801 12.9602 20.4867 13.3935Z" fill="white"/>
<path d="M20.1932 14.3467C19.8932 14.26 19.5798 14.2134 19.2532 14.2134H12.7465C12.2932 14.2134 11.8665 14.3 11.4665 14.4734C10.3065 14.9734 9.49316 16.1267 9.49316 17.4667V18.7667C9.49316 18.9267 9.5065 19.08 9.5265 19.24C9.67316 21.36 10.8065 22.4934 12.9265 22.6334C13.0798 22.6534 13.2332 22.6667 13.3998 22.6667H18.5998C21.0665 22.6667 22.3665 21.4934 22.4932 19.16C22.4998 19.0334 22.5065 18.9 22.5065 18.7667V17.4667C22.5065 15.9934 21.5265 14.7534 20.1932 14.3467ZM17.6665 18.7934H16.4998V20C16.4998 20.2734 16.2732 20.5 15.9998 20.5C15.7265 20.5 15.4998 20.2734 15.4998 20V18.7934H14.3332C14.0598 18.7934 13.8332 18.5734 13.8332 18.2934C13.8332 18.02 14.0598 17.7934 14.3332 17.7934H15.4998V16.6667C15.4998 16.3934 15.7265 16.1667 15.9998 16.1667C16.2732 16.1667 16.4998 16.3934 16.4998 16.6667V17.7934H17.6665C17.9398 17.7934 18.1665 18.02 18.1665 18.2934C18.1665 18.5734 17.9398 18.7934 17.6665 18.7934Z" fill="white"/>
</svg>
