<svg width="32" height="32" viewBox="0 0 32 32" fill="none" xmlns="http://www.w3.org/2000/svg">
<rect width="32" height="32" rx="4" fill="#8597A8"/>
<path fill-rule="evenodd" clip-rule="evenodd" d="M21 22C21.5304 22 22.0391 21.7893 22.4142 21.4142C22.7893 21.0391 23 20.5304 23 20V14C23 13.4696 22.7893 12.9609 22.4142 12.5858C22.0391 12.2107 21.5304 12 21 12H17.414C17.2814 11.9999 17.1543 11.9471 17.0607 11.8533L15.6467 10.44C15.5074 10.3006 15.3421 10.19 15.1601 10.1145C14.9781 10.039 14.783 10.0001 14.586 10H11C10.4696 10 9.96086 10.2107 9.58579 10.5858C9.21071 10.9609 9 11.4696 9 12V20C9 20.5304 9.21071 21.0391 9.58579 21.4142C9.96086 21.7893 10.4696 22 11 22H21ZM16.5 15C16.5 14.8674 16.4473 14.7402 16.3536 14.6464C16.2598 14.5527 16.1326 14.5 16 14.5C15.8674 14.5 15.7402 14.5527 15.6464 14.6464C15.5527 14.7402 15.5 14.8674 15.5 15V17.7933L14.3533 16.6467C14.2586 16.5583 14.1332 16.5103 14.0037 16.5125C13.8741 16.5148 13.7505 16.5673 13.6589 16.6589C13.5673 16.7505 13.5148 16.8741 13.5125 17.0037C13.5103 17.1332 13.5583 17.2586 13.6467 17.3533L15.6467 19.3533C15.7404 19.447 15.8675 19.4996 16 19.4996C16.1325 19.4996 16.2596 19.447 16.3533 19.3533L18.3533 17.3533C18.4025 17.3076 18.4419 17.2524 18.4692 17.191C18.4965 17.1297 18.5112 17.0635 18.5124 16.9963C18.5136 16.9292 18.5012 16.8625 18.4761 16.8003C18.4509 16.738 18.4135 16.6815 18.366 16.634C18.3185 16.5865 18.262 16.5491 18.1997 16.5239C18.1375 16.4988 18.0708 16.4864 18.0037 16.4876C17.9365 16.4888 17.8703 16.5035 17.809 16.5308C17.7476 16.5581 17.6924 16.5975 17.6467 16.6467L16.5 17.7933V15Z" fill="white"/>
</svg>
